<svg width="40" height="40" viewBox="0 0 50 50" fill="none" xmlns="http://www.w3.org/2000/svg">
<circle cx="25" cy="25" r="25" fill="#0058F7"/>
<path d="M33.0723 11.273C31.332 15.4539 31.031 16.6037 30.7321 18.4851C29.4893 18.067 27.3748 17.7984 24.975 17.7984C22.5751 17.7984 20.4606 18.0712 19.2178 18.4851C18.92 16.5985 18.6179 15.4477 16.8776 11.273C13.72 13.9802 12.4573 17.4127 12.033 18.9377C12.9507 19.4404 13.6959 20.3268 14.1527 21.5089C14.8718 23.3663 14.7537 25.1307 14.5561 28.0542C14.2559 32.2004 14.1767 36.3597 14.3189 40.5143C14.7007 40.7659 15.0916 41.0042 15.4916 41.2292L15.5021 41.2355C15.7961 41.3993 16.094 41.556 16.3957 41.7059L16.4229 41.7194C16.5205 41.7675 16.6177 41.8146 16.7145 41.8606L16.7532 41.8783C17.041 42.0128 17.3326 42.141 17.6281 42.263L17.72 42.3006L17.9855 42.4051L18.0765 42.4407C18.2416 42.5034 18.4068 42.5629 18.5729 42.6215L18.6775 42.6581L18.9179 42.7385L19.0736 42.7887L19.3046 42.8619L19.4917 42.9173C19.6088 42.9518 19.7258 42.9852 19.8439 43.0218L20.053 43.0793L20.2568 43.1316L20.4773 43.1849L20.6665 43.2298C20.793 43.258 20.9195 43.2863 21.047 43.3124L21.1996 43.3427L21.4734 43.395L21.6459 43.4253C21.741 43.442 21.8372 43.4587 21.9333 43.4733L22.0724 43.4953C22.2103 43.5162 22.3483 43.5361 22.4905 43.5538L22.6211 43.5695C22.7256 43.582 22.8302 43.5946 22.9347 43.605L23.081 43.6207C23.2012 43.6322 23.3214 43.6427 23.4427 43.6521L23.521 43.6594C23.6663 43.6698 23.8127 43.6793 23.959 43.6866L24.0844 43.6928C24.1963 43.6928 24.3081 43.7022 24.421 43.7054H24.5527C24.7022 43.7054 24.8516 43.7106 25.0021 43.7106C25.1526 43.7106 25.3021 43.7106 25.4516 43.7054H25.5812C25.6951 43.7054 25.808 43.6981 25.9209 43.6928L26.0421 43.6866C26.1885 43.6793 26.3348 43.6698 26.4801 43.6594L26.5668 43.6521L26.9212 43.6207L27.0654 43.6061C27.1699 43.5946 27.2818 43.582 27.3894 43.5685L27.5086 43.5549C27.6466 43.5361 27.7845 43.5172 27.9267 43.4963L28.0699 43.4733L28.3552 43.4263L28.5225 43.397C28.6207 43.3793 28.719 43.3594 28.8172 43.3406L28.9907 43.3051C29.1047 43.2821 29.2165 43.257 29.3294 43.2319L29.5165 43.188L29.7412 43.1326L29.9377 43.0835L30.1812 43.0166C30.2858 42.9873 30.3903 42.958 30.4948 42.9267L30.6861 42.8702L30.9098 42.8002L31.0739 42.7469L31.3069 42.6696C31.4993 42.6041 31.6902 42.5344 31.8797 42.4605L31.9989 42.4156L32.2539 42.3111L32.348 42.2724C32.6333 42.1553 32.9156 42.033 33.1936 41.9034L33.2626 41.871C33.6639 41.6822 34.0576 41.4804 34.4437 41.2658L34.474 41.2491C34.8677 41.0289 35.253 40.7955 35.63 40.5488C35.7736 36.3823 35.6947 32.2112 35.3938 28.0531C35.1962 25.1265 35.0802 23.3653 35.7972 21.5079C36.255 20.3247 37.0003 19.4373 37.9191 18.9356C37.4884 17.4117 36.2289 13.9791 33.0723 11.273ZM16.2201 24.8432C16.2202 24.3019 16.3537 23.769 16.6088 23.2916C16.8639 22.8143 17.2328 22.4071 17.6828 22.1063C18.1327 21.8055 18.6499 21.6202 19.1886 21.567C19.7272 21.5137 20.2707 21.5941 20.7709 21.8009C21.2711 22.0078 21.7126 22.3348 22.0562 22.7529C22.3999 23.1711 22.6352 23.6676 22.7412 24.1983C22.8473 24.7291 22.8209 25.2779 22.6643 25.796C22.5077 26.3141 22.2257 26.7857 21.8435 27.1688C22.0875 26.7718 22.2019 26.3088 22.171 25.8438C22.1401 25.3788 21.9654 24.935 21.671 24.5737C21.3766 24.2125 20.9771 23.9518 20.5279 23.8277C20.0788 23.7036 19.6021 23.7223 19.164 23.8811C18.726 24.04 18.3481 24.3312 18.0829 24.7143C17.8177 25.0975 17.6782 25.5536 17.6837 26.0196C17.6893 26.4856 17.8397 26.9383 18.114 27.315C18.3883 27.6917 18.773 27.9737 19.2147 28.1221C18.3965 28.0475 17.6358 27.6699 17.0817 27.0632C16.5277 26.4566 16.2204 25.6648 16.2201 24.8432V24.8432ZM29.8081 32.1682C29.8081 32.1682 29.7475 36.88 27.6037 39.6938C27.5525 39.7858 27.2556 39.9906 27.2536 39.8851C27.2368 39.1377 27.6455 35.6394 26.8731 32.4065C26.8731 32.3929 26.8846 32.4169 26.848 32.3291C26.0191 32.1912 25.184 31.7543 24.9781 31.493C24.6112 31.8724 23.7447 32.1201 23.0873 32.1577C23.0172 32.2058 23.0873 32.1818 23.0873 32.1953C22.3159 35.4282 22.7235 39.1357 22.7079 39.883C22.7079 39.9875 22.4089 39.7837 22.3577 39.6917C20.2129 36.8696 20.1523 32.1661 20.1523 32.1661V31.9434C19.5722 31.9434 18.506 30.7331 18.506 30.1519C18.506 30.0171 18.4203 29.8854 18.4569 29.7579C18.7224 30.6986 20.7564 31.2024 22.202 31.2024C23.0382 31.2024 24.097 30.7571 24.6342 30.3777V30.0265L23.5033 29.3722C23.0946 29.136 23.1584 28.3426 23.6298 28.3426C23.6298 28.3426 24.1126 28.1336 24.9781 28.1336C25.8435 28.1336 26.3369 28.3426 26.3369 28.3426C26.8083 28.3426 26.871 29.136 26.4634 29.3722L25.3324 30.0265C25.3324 30.292 25.3324 30.2136 25.3324 30.3777C25.8707 30.7571 26.9337 31.2024 27.7647 31.2024C29.2071 31.2024 31.2442 30.7007 31.5097 29.7579C31.5097 30.9797 30.4049 31.7595 29.8133 32.0145C29.8081 32.2121 29.8081 32.1682 29.8081 32.1682ZM30.7885 28.1221C31.2313 27.974 31.6169 27.6917 31.8921 27.3146C32.1672 26.9374 32.3181 26.4839 32.324 26.0171C32.3298 25.5503 32.1902 25.0932 31.9246 24.7093C31.659 24.3253 31.2805 24.0336 30.8416 23.8744C30.4027 23.7152 29.9252 23.6966 29.4752 23.8211C29.0252 23.9455 28.6251 24.2069 28.3304 24.569C28.0357 24.931 27.8609 25.3758 27.8303 25.8417C27.7997 26.3075 27.9149 26.7714 28.1598 27.1688C27.6309 26.6388 27.2984 25.9444 27.2173 25.2C27.1361 24.4556 27.3111 23.7059 27.7134 23.0743C28.1156 22.4428 28.7212 21.9672 29.43 21.7261C30.1389 21.485 30.9088 21.4927 31.6127 21.7479C32.3167 22.0032 32.9125 22.4907 33.3021 23.1302C33.6917 23.7697 33.8516 24.5228 33.7556 25.2654C33.6596 26.008 33.3133 26.6957 32.7739 27.215C32.2345 27.7343 31.5342 28.0543 30.7885 28.1221V28.1221Z" fill="#FAFAFA"/>
<path d="M43.3271 22.2051C42.2818 20.0101 39.1911 19.3652 37.9964 22.4549C36.8885 25.3177 38.1762 28.1848 37.9734 38.9026C41.4446 35.9634 43.557 31.8306 44.3033 27.1364C44.0556 25.3805 43.9709 23.5492 43.3271 22.2051ZM40.7046 21.6626C40.877 21.3825 41.1697 21.394 41.4237 21.5842C41.6777 21.7744 41.7425 22.3388 41.57 22.619C41.3976 22.8991 41.0547 22.7883 40.8007 22.5981C40.5467 22.4078 40.5321 21.9427 40.7046 21.6626ZM39.3311 21.9897C39.4754 21.6908 39.7294 21.5298 40.0001 21.6887C40.2708 21.8476 40.4548 22.2667 40.3137 22.5657C40.1726 22.8646 39.9123 23.1395 39.6416 22.9838C39.3709 22.828 39.1869 22.2887 39.3311 21.9897ZM38.8556 24.4774C38.5514 24.5181 38.3664 24.2683 38.333 23.9307C38.2995 23.5931 38.6382 23.1698 38.9423 23.129C39.2465 23.0883 39.397 23.4426 39.4346 23.7823C39.4723 24.122 39.1597 24.4356 38.8556 24.4774ZM41.0673 26.8574C40.8672 26.8894 40.6627 26.8815 40.4656 26.8341C40.2686 26.7867 40.0829 26.7006 39.9193 26.581C39.7557 26.4613 39.6175 26.3104 39.5126 26.137C39.4077 25.9636 39.3382 25.7711 39.3082 25.5707C39.2629 25.1621 39.3799 24.752 39.6341 24.4288C39.8882 24.1057 40.2592 23.8952 40.6669 23.8429C40.8671 23.811 41.0716 23.8191 41.2687 23.8666C41.4657 23.9142 41.6514 24.0003 41.815 24.1201C41.9785 24.2398 42.1167 24.3907 42.2216 24.5642C42.3265 24.7377 42.396 24.9302 42.4261 25.1307C42.4724 25.5393 42.3557 25.9497 42.1013 26.2728C41.8469 26.5958 41.4754 26.8055 41.0673 26.8563V26.8574ZM42.401 23.9119C42.0958 23.8879 41.7738 23.5869 41.7958 23.2492C41.8177 22.9116 41.9515 22.5448 42.2578 22.5698C42.564 22.5949 42.9246 23.0005 42.9027 23.3381C42.8807 23.6757 42.7072 23.936 42.401 23.9109V23.9119Z" fill="#FAFAFA"/>
<path d="M11.9525 22.4549C10.7567 19.3652 7.66703 20.0143 6.6218 22.2051C5.99467 23.5043 5.92046 25.2603 5.67169 26.9629C6.3814 31.7041 8.4938 35.885 11.9755 38.8566C11.7769 28.1764 13.0594 25.3136 11.9525 22.4549ZM9.94876 21.6887C10.2195 21.5298 10.4714 21.6887 10.6177 21.9897C10.764 22.2908 10.5801 22.8259 10.3041 22.9806C10.0282 23.1353 9.78152 22.8636 9.63206 22.5625C9.48259 22.2615 9.677 21.8476 9.94876 21.6887ZM8.52516 21.5842C8.77915 21.394 9.07182 21.3825 9.24428 21.6626C9.41674 21.9427 9.40211 22.4089 9.14812 22.6033C8.89413 22.7977 8.55025 22.9043 8.37883 22.6242C8.20741 22.3441 8.2764 21.7734 8.52412 21.5842H8.52516ZM7.04512 23.337C7.02317 22.9994 7.38482 22.5928 7.69002 22.5688C7.99523 22.5448 8.13007 22.9106 8.15202 23.2482C8.17396 23.5858 7.85203 23.8868 7.54683 23.9109C7.24162 23.9349 7.06707 23.6747 7.04512 23.337ZM10.6397 25.5697C10.6096 25.7701 10.5401 25.9626 10.4352 26.136C10.3303 26.3094 10.1921 26.4603 10.0285 26.5799C9.86491 26.6996 9.67923 26.7856 9.48219 26.8331C9.28515 26.8805 9.08065 26.8884 8.88054 26.8563C8.47225 26.8056 8.1005 26.5957 7.84607 26.2724C7.59164 25.9491 7.47509 25.5384 7.52174 25.1296C7.5518 24.9291 7.62128 24.7366 7.72617 24.5632C7.83106 24.3897 7.96928 24.2387 8.13284 24.119C8.29641 23.9993 8.48208 23.9131 8.67912 23.8656C8.87617 23.818 9.08069 23.81 9.28086 23.8419C9.68865 23.8942 10.0596 24.1046 10.3137 24.4278C10.5679 24.7509 10.6849 25.161 10.6397 25.5697V25.5697ZM11.6211 23.9297C11.5845 24.2652 11.3995 24.5171 11.0985 24.4763C10.7975 24.4356 10.486 24.1178 10.5226 23.7813C10.5592 23.4447 10.7097 23.0862 11.0149 23.128C11.3201 23.1698 11.6556 23.5942 11.6211 23.9297Z" fill="#FAFAFA"/>
</svg>
